<svg xmlns="http://www.w3.org/2000/svg" xmlns:xlink="http://www.w3.org/1999/xlink" viewBox="0 0 254.36 197.76"><defs><style>.cls-1,.cls-12,.cls-8{fill:none;}.cls-2{clip-path:url(#clip-path);}.cls-3{fill:#d32653;}.cls-4{fill:#fff;}.cls-5{fill:#f7c95e;}.cls-6{opacity:0.34;}.cls-7{clip-path:url(#clip-path-4);}.cls-8{stroke:#f1e574;stroke-linecap:round;stroke-width:3px;}.cls-12,.cls-8{stroke-miterlimit:10;}.cls-9{fill:#323333;}.cls-10{fill:#4f4e4f;}.cls-11{fill:#f19160;}.cls-12{stroke:#d4924a;stroke-width:2px;}.cls-13{fill:#f4df28;}.cls-14{fill:#a96f36;}.cls-15{fill:#e84166;}.cls-16{fill:#58af43;}.cls-17{fill:#75be5e;}.cls-18{fill:#4c9936;}</style><clipPath id="clip-path" transform="translate(0 0)"><rect class="cls-1" width="254.36" height="197.76"/></clipPath><clipPath id="clip-path-4" transform="translate(0 0)"><rect class="cls-1" x="35.07" y="50.57" width="181.88" height="87.84"/></clipPath></defs><title>ramen</title><g id="レイヤー_2" data-name="レイヤー 2"><g id="レイヤー_1-2" data-name="レイヤー 1"><g id="ベクトルスマートオブジェクト"><g class="cls-2"><g class="cls-2"><g class="cls-2"><path class="cls-3" d="M184.79,167.31c0,16.82-25.79,30.45-57.61,30.45s-57.61-13.63-57.61-30.45,25.79-30.44,57.61-30.44,57.61,13.63,57.61,30.44" transform="translate(0 0)"/><path class="cls-3" d="M.12,72.44S-6,136.91,69.57,172.78h57.61V72.44Z" transform="translate(0 0)"/><path class="cls-3" d="M254.24,72.44s6.17,64.47-69.45,100.34H127.18V72.44Z" transform="translate(0 0)"/><path class="cls-4" d="M254.24,72.44c0,40-56.89,72.43-127.06,72.43S.12,112.44.12,72.44,57,0,127.18,0,254.24,32.43,254.24,72.44" transform="translate(0 0)"/><path class="cls-5" d="M127.18,33.91c-60.93,0-110.33,28.16-110.33,62.9a37.64,37.64,0,0,0,2.86,14.28c22.51,20.3,62.23,33.78,107.47,33.78s85-13.48,107.47-33.78a37.64,37.64,0,0,0,2.86-14.28c0-34.74-49.4-62.9-110.33-62.9" transform="translate(0 0)"/><g class="cls-6"><g class="cls-7"><path class="cls-8" d="M167,131.7c-25.33,9.8-98.23,5.07-68.66-8.17S209,113.9,215,101.82s-54.72-6.58-87.84-6.58S31,122.57,37,101.82,109,73.24,138.29,68.7,217,80.57,215,72.44s-27.33-19.2-80-20.33S37,79.9,37,79.9" transform="translate(0 0)"/></g></g><path class="cls-9" d="M175.47,88l-41.73-8.57a2.6,2.6,0,0,1-2-3.06L143.67,18.2a2.6,2.6,0,0,1,3.06-2l41.73,8.58a2.6,2.6,0,0,1,2,3.06L178.53,86a2.59,2.59,0,0,1-3.06,2" transform="translate(0 0)"/><path class="cls-10" d="M190.05,110.8,157.67,83.1a2.59,2.59,0,0,1-.28-3.65L196,34.36a2.59,2.59,0,0,1,3.65-.29L232,61.77a2.59,2.59,0,0,1,.29,3.65l-38.58,45.1a2.59,2.59,0,0,1-3.65.28" transform="translate(0 0)"/><path class="cls-11" d="M131,42c10.18,17.64,1.52,41.71-19.36,53.77s-46.06,7.52-56.24-10.12S53.91,44,74.78,31.9,120.84,24.37,131,42" transform="translate(0 0)"/><path class="cls-12" d="M131,42c10.18,17.64,1.52,41.71-19.36,53.77s-46.06,7.52-56.24-10.12S53.91,44,74.78,31.9,120.84,24.37,131,42Z" transform="translate(0 0)"/><path class="cls-4" d="M77.49,89.09c11.13,10.52,13.18,26.42,4.59,35.51s-24.59,7.93-35.72-2.6S33.18,95.58,41.77,86.49s24.59-7.93,35.72,2.6" transform="translate(0 0)"/><path class="cls-13" d="M79.79,103.94A14.16,14.16,0,1,1,61,97a14.17,14.17,0,0,1,18.8,6.91" transform="translate(0 0)"/><path class="cls-4" d="M135.74,97.62c-3.8,14.84-16.7,24.36-28.82,21.26S88.05,101.24,91.85,86.4,108.54,62,120.66,65.14s18.87,17.64,15.08,32.48" transform="translate(0 0)"/><path class="cls-13" d="M123.86,106.84a14.16,14.16,0,1,1-3.08-19.78,14.15,14.15,0,0,1,3.08,19.78" transform="translate(0 0)"/><path class="cls-14" d="M170.74,90.45,165,94.82l3.09-5.76c2.24-4,3-9.18,3-14.09l5.52.08a27.94,27.94,0,0,1-5.89,15.4" transform="translate(0 0)"/><path class="cls-15" d="M179.19,121.07a6.61,6.61,0,0,1-.63,2.24,6.72,6.72,0,0,1-8.62,3.28,7,7,0,0,1-.57,1.78,6.71,6.71,0,0,1-9,3.13,6.49,6.49,0,0,1-1.8-1.27,8.14,8.14,0,0,1-13.83-6.66,6.88,6.88,0,0,1-2.11-.62,6.72,6.72,0,0,1-2.09-10.52,6.72,6.72,0,0,1-2.81-8.79,6.86,6.86,0,0,1,1.36-1.89,8.13,8.13,0,0,1,7-10.48,4.73,4.73,0,0,1,.41-1.18,5.5,5.5,0,0,1,7.12-2.67,8,8,0,0,1,.67-.47,8.12,8.12,0,0,1,7.82-.41A8,8,0,0,1,165,88.83a8.13,8.13,0,0,1,8.22,4,8.3,8.3,0,0,1,3.58.81,8.13,8.13,0,0,1,4.4,5.53,8.56,8.56,0,0,1,.2,1.67,5.5,5.5,0,0,1,2.35,7.23,5.44,5.44,0,0,1-.67,1.06,8.13,8.13,0,0,1-3.87,12" transform="translate(0 0)"/><path class="cls-3" d="M176.78,93.6a8.16,8.16,0,0,0-3.58-.81,8.15,8.15,0,0,0-3.5-3.24,8.3,8.3,0,0,0-2-.66h-.12a6.42,6.42,0,0,0-.75-.1H165.6l-.16,0h-.15l-.31,0a8,8,0,0,0-2.86-2.29h0a8.09,8.09,0,0,0-8.49.88,5.49,5.49,0,0,0-7.12,2.67,5.2,5.2,0,0,0-.42,1.18,8.14,8.14,0,0,0-7,10.48,6.86,6.86,0,0,0-1.36,1.89,6.72,6.72,0,0,0,2.81,8.79A6.72,6.72,0,0,0,142.67,123a6.59,6.59,0,0,0,2.11.61,8.16,8.16,0,0,0,4.44,8.18,5,5,0,0,1-1-8.19,4.45,4.45,0,0,1-.93-5.14,4.4,4.4,0,0,1,1.94-2,6.7,6.7,0,0,1-1.78-8.09,6.52,6.52,0,0,1,1.36-1.89,8.16,8.16,0,0,1,3.35-9.22,3.11,3.11,0,0,1,4.52,1.35s5.25-5.21,8.31-1.72c0,0,4.5-3.22,6.71,2.86,1.34,3.71,7,1,7,1l2.53-1.54a8.13,8.13,0,0,0-4.4-5.53" transform="translate(0 0)"/><path class="cls-16" d="M169.7,89.55a13.21,13.21,0,0,0-23-5.22,13.22,13.22,0,0,0,23,5.22" transform="translate(0 0)"/><path class="cls-17" d="M169.7,89.55a13.21,13.21,0,0,1,18.41,14.74A13.21,13.21,0,0,1,169.7,89.55" transform="translate(0 0)"/><path class="cls-18" d="M182.35,100.58a.86.86,0,0,1-.36-.3c-5.74-8-12.46-9.79-12.52-9.81a1,1,0,0,1-.69-1.15,1,1,0,0,1,1.16-.69c.3.08,7.45,2,13.59,10.55a1,1,0,0,1-.22,1.32.93.93,0,0,1-1,.08" transform="translate(0 0)"/><path class="cls-18" d="M176.14,98.32a.94.94,0,0,1-.54-.91l.23-3.86a1,1,0,0,1,.85-.89l3.46-.38a1,1,0,0,1,1,.84.94.94,0,0,1-.84,1l-2.66.3-.19,3.06a.94.94,0,0,1-1,.89,1.06,1.06,0,0,1-.35-.09" transform="translate(0 0)"/><path class="cls-18" d="M153.19,86.53a1,1,0,0,1-.53-.81.94.94,0,0,1,.9-1c10.51-.53,16.46,3.88,16.71,4.07a.94.94,0,0,1,.19,1.32,1,1,0,0,1-1.33.19,17.55,17.55,0,0,0-4-2,28.57,28.57,0,0,0-11.45-1.66,1,1,0,0,1-.46-.09" transform="translate(0 0)"/><path class="cls-18" d="M158.83,90a1.06,1.06,0,0,1-.29-.22,1,1,0,0,1,.07-1.34l2.29-2-1.43-2.27a.95.95,0,1,1,1.6-1L162.92,86a1,1,0,0,1-.16,1.21l-2.88,2.59a1,1,0,0,1-1,.15" transform="translate(0 0)"/></g></g></g></g></g></g></svg>